<svg width="139" height="139" viewBox="0 0 139 139" fill="none" xmlns="http://www.w3.org/2000/svg">
<rect x="13" y="81" width="45" height="45" rx="15" fill="white"/>
<rect x="13" y="81" width="45" height="45" rx="15" fill="white"/>
<rect x="13" y="81" width="45" height="45" rx="15" fill="white"/>
<rect x="13" y="81" width="45" height="45" rx="15" fill="white"/>
<rect x="81" y="81" width="45" height="45" rx="15" fill="white"/>
<rect x="81" y="81" width="45" height="45" rx="15" fill="white"/>
<rect x="81" y="81" width="45" height="45" rx="15" fill="white"/>
<rect x="81" y="81" width="45" height="45" rx="15" fill="white"/>
<rect x="81" y="13" width="45" height="45" rx="15" fill="white"/>
<rect x="81" y="13" width="45" height="45" rx="15" fill="white"/>
<rect x="81" y="13" width="45" height="45" rx="15" fill="white"/>
<rect x="81" y="13" width="45" height="45" rx="15" fill="white"/>
<rect x="13" y="13" width="45" height="45" rx="15" fill="white"/>
<rect x="13" y="13" width="45" height="45" rx="15" fill="white"/>
<rect x="13" y="13" width="45" height="45" rx="15" fill="white"/>
<rect x="13" y="13" width="45" height="45" rx="15" fill="white"/>
</svg>
